<svg xmlns="http://www.w3.org/2000/svg" version="1.1" xmlns:xlink="http://www.w3.org/1999/xlink" xmlns:svgjs="http://svgjs.dev/svgjs" width="2000" height="505" viewBox="0 0 2000 505"><g transform="matrix(1,0,0,1,-1.2121212121212466,-1.2134160155518146)"><svg viewBox="0 0 396 100" data-background-color="#edeae0" preserveAspectRatio="xMidYMid meet" height="505" width="2000" xmlns="http://www.w3.org/2000/svg" xmlns:xlink="http://www.w3.org/1999/xlink"><g id="tight-bounds" transform="matrix(1,0,0,1,0.2400000000000091,0.24028039911917176)"><svg viewBox="0 0 395.52 99.51943920176164" height="99.51943920176164" width="395.52"><g><svg viewBox="0 0 547.4124411324151 137.73811476932977" height="99.51943920176164" width="395.52"><g transform="matrix(1,0,0,1,151.89244113241517,38.89073183889698)"><svg viewBox="0 0 395.52 59.95665109153581" height="59.95665109153581" width="395.52"><g id="textblocktransform"><svg viewBox="0 0 395.52 59.95665109153581" height="59.95665109153581" width="395.52" id="textblock"><g><svg viewBox="0 0 395.52 59.95665109153581" height="59.95665109153581" width="395.52"><g transform="matrix(1,0,0,1,0,0)"><svg width="395.52" viewBox="0.15 -36.74 318.69 48.31" height="59.95665109153581" data-palette-color="#0074d9"><path d="M16.16-33.84L27.71 0 23.44 0 20.12-10.5 7.62-10.5 4.27 0 0.15 0 11.69-33.84 16.16-33.84ZM10.35-19.07L10.35-19.07 8.64-13.7 19.12-13.7 17.41-19.07Q16.48-21.92 15.65-24.73 14.82-27.54 13.96-30.49L13.96-30.49 13.75-30.49Q12.99-27.54 12.13-24.73 11.28-21.92 10.35-19.07ZM38.64 0.61L38.64 0.61Q35.86 0.61 33.47-0.33 31.08-1.27 29.37-2.93L29.37-2.93 31.22-5.25Q32.81-3.93 34.6-3.2 36.4-2.47 38.79-2.47L38.79-2.47Q41.31-2.47 42.58-3.67 43.85-4.88 43.85-6.54L43.85-6.54Q43.85-7.86 43.02-8.73 42.19-9.59 40.88-10.21 39.57-10.82 38.13-11.33L38.13-11.33Q36.28-12.01 34.59-12.92 32.91-13.82 31.83-15.19 30.76-16.55 30.76-18.6L30.76-18.6Q30.76-21.53 32.98-23.57 35.2-25.61 39.26-25.61L39.26-25.61Q41.57-25.61 43.54-24.82 45.51-24.02 46.95-22.83L46.95-22.83 45.14-20.51Q43.82-21.46 42.42-21.98 41.01-22.51 39.3-22.51L39.3-22.51Q36.84-22.51 35.7-21.37 34.57-20.24 34.57-18.8L34.57-18.8Q34.57-17.02 36.08-16.11 37.6-15.21 39.87-14.36L39.87-14.36Q41.84-13.67 43.63-12.78 45.41-11.89 46.53-10.47 47.65-9.06 47.65-6.74L47.65-6.74Q47.65-3.71 45.33-1.55 43.02 0.61 38.64 0.61ZM60.13 0.61L60.13 0.61Q57.34 0.61 54.95-0.33 52.56-1.27 50.85-2.93L50.85-2.93 52.7-5.25Q54.29-3.93 56.09-3.2 57.88-2.47 60.27-2.47L60.27-2.47Q62.79-2.47 64.06-3.67 65.33-4.88 65.33-6.54L65.33-6.54Q65.33-7.86 64.5-8.73 63.67-9.59 62.36-10.21 61.05-10.82 59.61-11.33L59.61-11.33Q57.76-12.01 56.07-12.92 54.39-13.82 53.32-15.19 52.24-16.55 52.24-18.6L52.24-18.6Q52.24-21.53 54.46-23.57 56.68-25.61 60.74-25.61L60.74-25.61Q63.06-25.61 65.02-24.82 66.99-24.02 68.43-22.83L68.43-22.83 66.62-20.51Q65.3-21.46 63.9-21.98 62.5-22.51 60.79-22.51L60.79-22.51Q58.32-22.51 57.18-21.37 56.05-20.24 56.05-18.8L56.05-18.8Q56.05-17.02 57.56-16.11 59.08-15.21 61.35-14.36L61.35-14.36Q63.33-13.67 65.11-12.78 66.89-11.89 68.01-10.47 69.14-9.06 69.14-6.74L69.14-6.74Q69.14-3.71 66.82-1.55 64.5 0.61 60.13 0.61ZM79.07 0L75.11 0 75.11-24.98 79.07-24.98 79.07 0ZM77.17-30.25L77.17-30.25Q75.97-30.25 75.24-30.99 74.5-31.74 74.5-32.98L74.5-32.98Q74.5-34.13 75.24-34.86 75.97-35.6 77.17-35.6L77.17-35.6Q78.36-35.6 79.09-34.86 79.83-34.13 79.83-32.98L79.83-32.98Q79.83-31.74 79.09-30.99 78.36-30.25 77.17-30.25ZM96.13 11.57L96.13 11.57Q91.49 11.57 88.64 9.83 85.78 8.08 85.78 4.83L85.78 4.83Q85.78 3.2 86.76 1.73 87.73 0.27 89.42-0.85L89.42-0.85 89.42-1.07Q88.52-1.64 87.87-2.65 87.22-3.66 87.22-5.15L87.22-5.15Q87.22-6.74 88.12-7.93 89.03-9.13 89.96-9.79L89.96-9.79 89.96-9.99Q88.71-10.96 87.73-12.71 86.76-14.45 86.76-16.67L86.76-16.67Q86.76-19.41 88.03-21.41 89.3-23.41 91.41-24.51 93.52-25.61 96.03-25.61L96.03-25.61Q97.08-25.61 97.98-25.43 98.87-25.24 99.53-24.98L99.53-24.98 108.24-24.98 108.24-21.95 102.99-21.95Q103.92-21.04 104.53-19.65 105.14-18.26 105.14-16.63L105.14-16.63Q105.14-13.96 103.93-12.01 102.72-10.06 100.66-9 98.6-7.93 96.03-7.93L96.03-7.93Q95.11-7.93 94.12-8.15 93.13-8.37 92.28-8.79L92.28-8.79Q91.59-8.23 91.1-7.52 90.62-6.81 90.62-5.76L90.62-5.76Q90.62-4.52 91.55-3.75 92.49-2.98 95.06-2.98L95.06-2.98 99.99-2.98Q104.34-2.98 106.5-1.54 108.66-0.1 108.66 2.98L108.66 2.98Q108.66 5.27 107.12 7.23 105.58 9.18 102.76 10.38 99.94 11.57 96.13 11.57ZM96.03-10.6L96.03-10.6Q98.28-10.6 99.92-12.24 101.55-13.89 101.55-16.67L101.55-16.67Q101.55-19.51 99.93-21.11 98.31-22.71 96.03-22.71L96.03-22.71Q93.74-22.71 92.15-21.11 90.57-19.51 90.57-16.67L90.57-16.67Q90.57-13.89 92.19-12.24 93.81-10.6 96.03-10.6ZM96.65 8.79L96.65 8.79Q99.11 8.79 100.92 8.03 102.72 7.28 103.73 6.08 104.73 4.88 104.73 3.54L104.73 3.54Q104.73 1.73 103.44 1.04 102.16 0.34 99.62 0.34L99.62 0.34 95.16 0.34Q94.47 0.34 93.62 0.26 92.76 0.17 91.91-0.05L91.91-0.05Q90.52 0.9 89.89 2.05 89.27 3.2 89.27 4.32L89.27 4.32Q89.27 6.37 91.23 7.58 93.18 8.79 96.65 8.79ZM117.49 0L113.54 0 113.54-24.98 116.83-24.98 117.2-21.39 117.3-21.39Q119.1-23.17 121.13-24.39 123.16-25.61 125.74-25.61L125.74-25.61Q129.65-25.61 131.48-23.13 133.31-20.65 133.31-15.87L133.31-15.87 133.31 0 129.41 0 129.41-15.36Q129.41-18.92 128.26-20.56 127.11-22.19 124.5-22.19L124.5-22.19Q122.57-22.19 121.01-21.17 119.45-20.14 117.49-18.19L117.49-18.19 117.49 0ZM147.32 0.61L147.32 0.61Q144.2 0.61 142.1-1.21 140-3.03 140-6.42L140-6.42Q140-10.52 143.72-12.72 147.45-14.92 155.48-15.82L155.48-15.82Q155.48-17.48 155.03-18.97 154.57-20.46 153.44-21.41 152.3-22.36 150.2-22.36L150.2-22.36Q147.98-22.36 146.04-21.51 144.1-20.65 142.64-19.73L142.64-19.73 141.1-22.36Q142.76-23.51 145.29-24.56 147.81-25.61 150.84-25.61L150.84-25.61Q155.4-25.61 157.42-22.8 159.43-20 159.43-15.41L159.43-15.41 159.43 0 156.14 0 155.82-3.03 155.67-3.03Q153.87-1.54 151.76-0.46 149.64 0.61 147.32 0.61ZM148.4-2.56L148.4-2.56Q150.28-2.56 151.93-3.44 153.57-4.32 155.48-5.96L155.48-5.96 155.48-13.18Q151.16-12.65 148.62-11.77 146.08-10.89 144.98-9.64 143.88-8.4 143.88-6.74L143.88-6.74Q143.88-4.52 145.2-3.54 146.52-2.56 148.4-2.56ZM171.37 0L167.41 0 167.41-24.98 170.71-24.98 171.08-20.46 171.17-20.46Q172.49-22.8 174.32-24.21 176.15-25.61 178.28-25.61L178.28-25.61Q179.89-25.61 180.92-25.1L180.92-25.1 180.04-21.73Q179.5-21.9 179.02-21.97 178.55-22.05 177.77-22.05L177.77-22.05Q176.18-22.05 174.42-20.74 172.66-19.43 171.37-16.16L171.37-16.16 171.37 0ZM209.69 0.61L209.69 0.61Q205.03 0.61 202.21-2.8 199.39-6.2 199.39-12.45L199.39-12.45Q199.39-16.5 200.92-19.46 202.44-22.41 204.92-24.01 207.4-25.61 210.26-25.61L210.26-25.61Q212.43-25.61 214.05-24.84 215.68-24.07 217.31-22.71L217.31-22.71 217.17-27 217.17-36.74 221.14-36.74 221.14 0 217.85 0 217.53-2.98 217.38-2.98Q215.9-1.51 213.94-0.45 211.99 0.61 209.69 0.61ZM210.57-2.71L210.57-2.71Q212.36-2.71 213.94-3.58 215.53-4.44 217.17-6.23L217.17-6.23 217.17-19.58Q215.5-21.04 213.99-21.68 212.48-22.31 210.89-22.31L210.89-22.31Q208.82-22.31 207.14-21.07 205.47-19.82 204.47-17.6 203.47-15.38 203.47-12.45L203.47-12.45Q203.47-7.89 205.32-5.3 207.18-2.71 210.57-2.71ZM239.72 0.61L239.72 0.61Q236.43 0.61 233.73-0.95 231.03-2.51 229.43-5.44 227.83-8.37 227.83-12.45L227.83-12.45Q227.83-16.53 229.43-19.48 231.03-22.44 233.59-24.02 236.16-25.61 239.01-25.61L239.01-25.61Q243.73-25.61 246.31-22.46 248.9-19.31 248.9-13.89L248.9-13.89Q248.9-12.52 248.75-11.57L248.75-11.57 231.74-11.57Q231.93-7.5 234.23-5 236.52-2.51 240.18-2.51L240.18-2.51Q242.06-2.51 243.63-3.02 245.19-3.52 246.53-4.42L246.53-4.42 247.92-1.95Q246.29-0.83 244.31-0.11 242.33 0.61 239.72 0.61ZM231.69-14.43L231.69-14.43 245.41-14.43Q245.41-18.36 243.75-20.41 242.09-22.46 239.06-22.46L239.06-22.46Q236.35-22.46 234.22-20.36 232.08-18.26 231.69-14.43ZM259.08 0L255.12 0 255.12-24.98 258.42-24.98 258.79-21.31 258.88-21.31Q260.54-23.14 262.51-24.38 264.47-25.61 266.72-25.61L266.72-25.61Q269.58-25.61 271.2-24.32 272.82-23.02 273.56-20.8L273.56-20.8Q275.53-22.92 277.58-24.27 279.64-25.61 281.86-25.61L281.86-25.61Q285.69-25.61 287.57-23.13 289.45-20.65 289.45-15.87L289.45-15.87 289.45 0 285.52 0 285.52-15.36Q285.52-18.92 284.35-20.56 283.18-22.19 280.73-22.19L280.73-22.19Q277.85-22.19 274.29-18.19L274.29-18.19 274.29 0 270.31 0 270.31-15.36Q270.31-18.92 269.15-20.56 267.99-22.19 265.52-22.19L265.52-22.19Q262.64-22.19 259.08-18.19L259.08-18.19 259.08 0ZM307.29 0.61L307.29 0.61Q304.27 0.61 301.64-0.93 299.02-2.47 297.42-5.38 295.82-8.3 295.82-12.45L295.82-12.45Q295.82-16.63 297.42-19.57 299.02-22.51 301.64-24.06 304.27-25.61 307.29-25.61L307.29-25.61Q310.37-25.61 313.01-24.06 315.64-22.51 317.24-19.57 318.84-16.63 318.84-12.45L318.84-12.45Q318.84-8.3 317.24-5.38 315.64-2.47 313.01-0.93 310.37 0.61 307.29 0.61ZM307.29-2.66L307.29-2.66Q310.64-2.66 312.71-5.36 314.79-8.06 314.79-12.45L314.79-12.45Q314.79-16.87 312.71-19.59 310.64-22.31 307.29-22.31L307.29-22.31Q305.12-22.31 303.44-21.07 301.75-19.82 300.81-17.61 299.87-15.41 299.87-12.45L299.87-12.45Q299.87-8.06 301.95-5.36 304.02-2.66 307.29-2.66Z" opacity="1" transform="matrix(1,0,0,1,0,0)" fill="#0074d9" class="wordmark-text-0" data-fill-palette-color="primary" id="text-0"></path></svg></g></svg></g></svg></g></svg></g><g><svg viewBox="0 0 137.73811476932977 137.73811476932977" height="137.73811476932977" width="137.73811476932977"><g><svg></svg></g><g id="icon-0"><svg viewBox="0 0 137.73811476932977 137.73811476932977" height="137.73811476932977" width="137.73811476932977"><g><rect width="125.23965620692762" height="125.23965620692762" x="6.249229281201075" y="6.249229281201075" fill="#0074d9" data-fill-palette-color="accent"></rect><rect width="125.23965620692762" height="125.23965620692762" x="12.498458562402146" y="2.6645352591003757e-15" fill="#0074d9" opacity="0.5" data-fill-palette-color="accent"></rect></g><g transform="matrix(1,0,0,1,17.85494080343164,34.79514240643902)"><svg viewBox="0 0 102.02823316246649 68.14782995645173" height="68.14782995645173" width="102.02823316246649"><g><svg xmlns="http://www.w3.org/2000/svg" xmlns:xlink="http://www.w3.org/1999/xlink" version="1.1" x="0" y="0" viewBox="5.404 19.587 90.159 60.22" enable-background="new 0 0 100 100" xml:space="preserve" height="68.14782995645173" width="102.02823316246649" class="icon-dxe-0" data-fill-palette-color="quaternary" id="dxe-0"><path d="M75.146 51.505C73.933 49.787 71.608 51.909 71.103 52.213S70.901 52.315 68.778 51.708C66.656 51.101 65.139 52.517 64.633 53.527 64.129 54.537 61.197 60.501 60.692 61.41 60.186 62.32 58.974 61.715 58.974 61.715S56.902 60.501 56.143 60.198C55.385 59.894 54.83 60.552 54.83 60.552L52.354 63.18S42.751 58.707 41.69 58.125C40.629 57.545 38.203 51.455 37.496 50.191S36.94 47.967 36.94 47.967 36.788 45.339 36.737 40.588C36.687 35.838 34.665 33.766 34.261 33.109S34.21 31.897 34.21 31.897L34.696 30.843A5.65 5.65 0 0 0 34.013 19.587 5.65 5.65 0 0 0 29.264 28.296C29.231 28.584 29.185 29.027 29.156 29.522 29.106 30.381 28.044 30.634 28.044 30.634S25.619 30.583 25.012 30.583 23.799 30.836 23.799 30.836 14.247 35.637 13.186 36.143C12.125 36.648 12.226 37.456 12.226 37.456L11.518 45.744S11.063 46.098 10.81 46.25C10.558 46.401 10.558 46.705 10.558 46.705V48.019C10.558 48.373 11.114 48.575 11.114 48.575S12.125 49.03 12.579 49.282C13.034 49.535 13.185 49.282 13.185 49.282S14.903 48.827 15.257 48.625 15.914 48.423 15.914 48.423L16.975 48.979S17.177 58.884 17.177 60.046 16.672 61.815 16.672 61.815 9.495 71.569 8.737 72.629C7.979 73.691 8.904 74.326 8.904 74.326L10.153 75.156S11.088 75.662 11.088 76.243 10.305 77.027 10.305 77.027H5.404V79.705L95.563 79.807zM15.713 45.845C15.562 45.542 16.168 39.983 16.168 39.983L21.272 37.456S21.828 37.052 21.778 37.785 20.868 41.398 20.868 41.398L18.089 47.008C18.089 47.007 15.865 46.148 15.713 45.845M18.24 77.092L16.825 74.399S16.522 73.692 16.522 73.237 16.876 72.075 16.876 72.075L22.738 63.585S23.142 62.877 23.244 62.069C23.345 61.26 23.951 55.852 23.951 55.852S24.053 55.75 24.255 55.954C24.457 56.155 29.056 62.27 29.056 62.27S29.41 63.028 29.41 63.483 29.561 77.028 29.561 77.028zM29.207 50.141C29.207 49.029 29.106 47.867 29.712 47.058 30.319 46.249 32.087 44.278 32.087 44.278L32.239 48.473S32.239 49.635 32.643 50.444 34.766 54.639 34.766 54.639L30.571 52.77S29.207 51.253 29.207 50.141M49.271 70.861S48.614 71.113 48.209 71.265C47.805 71.416 46.845 71.619 46.491 72.781S45.934 74.701 45.075 74.853C44.216 75.004 44.064 75.207 43.509 75.762 42.953 76.319 42.839 76.925 42.334 77.027S38.455 77.091 38.455 77.091L35.979 73.236S35.726 72.629 35.726 72.074C35.726 71.517 35.473 61.763 35.473 61.763S35.322 60.955 34.968 60.349 32.795 56.66 32.795 56.66L50.562 65.316 49.624 66.463S48.815 67.424 49.725 67.828 52.1 68.84 52.1 68.84L52.151 69.244z" fill="#edeae0" data-fill-palette-color="quaternary"></path></svg></g></svg></g></svg></g></svg></g></svg></g><defs></defs></svg><rect width="395.52" height="99.51943920176164" fill="none" stroke="none" visibility="hidden"></rect></g></svg></g></svg>